<svg xmlns="http://www.w3.org/2000/svg" version="1.1" xmlns:xlink="http://www.w3.org/1999/xlink" xmlns:svgjs="http://svgjs.dev/svgjs" width="100%" height="100%" viewBox="0 0 1000 600"><rect width="1000" height="600" x="0" y="0" fill="#f89e7b"/><g><circle r="166.66666666666666" cx="436.5137736002604" cy="458.7359785432617" fill="#f89e7b" transform="matrix(0.4632252738242662,0,0,0.46322527382426615,0,87.50188748721533)"/><path d="M420.07295924343526 383.7360010182381L420.07295924343526 517.8033577158444L472.56399120798307 517.8033577158444L472.56399120798307 533.7360001059949L400.46355322478865 533.7360001059949L400.46355322478865 383.7360010182381L420.07295924343526 383.7360010182381Z " fill="#ffffff" transform="matrix(0.4632252738242662,0,0,0.46322527382426615,0,87.50188748721533)"/><path d="M771.369395103361 415.5568646575024L790.6976199946971 415.5568646575024L790.6976199946971 531.8208515800827L771.369395103361 531.8208515800827L771.369395103361 514.6434809830569Q765.8596724590318 523.5415357348609 755.9893137111695 528.5209107449765Q746.1484187207636 533.5297495125484 734.2450607084163 533.5297495125484L734.2450607084163 533.5297495125484Q720.6917322785159 533.5297495125484 709.8490695345956 527.9021718383941Q699.0358705481316 522.2745941642397 692.7895539673949 511.0194388159312Q686.5137736292019 499.79374722507896 686.5137736292019 483.67707189647996L686.5137736292019 483.67707189647996L686.5137736292019 415.5568646575024L705.6062884608876 415.5568646575024L705.6062884608876 481.11372499778145Q705.6062884608876 498.29109559480736 714.327560667954 507.54271543608724Q723.019369117564 516.7648715199107 738.075349177736 516.7648715199107L738.075349177736 516.7648715199107Q753.5732855997526 516.7648715199107 762.4713403515567 507.21861410406785Q771.369395103361 497.67235668822497 771.369395103361 479.4342908227721L771.369395103361 479.4342908227721L771.369395103361 415.5568646575024ZM905.8714478913942 531.8208515800827L884.0388036162719 531.8208515800827L856.4607266371703 488.53859187677034L829.9433449264957 531.8208515800827L809.7901348263829 531.8208515800827L847.3269618257157 474.1308144806371L809.7901348263829 415.5568646575024L831.622779101505 415.5568646575024L859.2008560806067 458.6328780586206L885.5119914890872 415.5568646575024L905.6652015892 415.5568646575024L868.3346208920614 473.07011921221016L905.8714478913942 531.8208515800827ZM1031.0334895657788 469.23983074289043Q1031.0334895657788 474.7495533872195 1030.4147506591962 480.9074786955873L1030.4147506591962 480.9074786955873L937.4860596420096 480.9074786955873Q938.5467549104366 498.0848492926132 949.2715626245317 507.74896173828137Q959.9669065811704 517.3836104264931 975.2585967009929 517.3836104264931L975.2585967009929 517.3836104264931Q987.7512298624663 517.3836104264931 996.1484007375133 511.5497864501447Q1004.5161078551039 505.7159624737963 1007.9044399625791 495.9634587557593L1007.9044399625791 495.9634587557593L1028.7058527267304 495.9634587557593Q1024.0505790486345 512.7283367483969 1010.025830499433 523.2174344028415Q996.030545707688 533.7359958147425 975.2585967009929 533.7359958147425L975.2585967009929 533.7359958147425Q958.6999650105494 533.7359958147425 945.6475204574061 526.3111289357537Q932.595075904263 518.8862620567647 925.1702090252741 505.1856148395828Q917.7453421462851 491.51443137985717 917.7453421462851 473.4826118165984L917.7453421462851 473.4826118165984Q917.7453421462851 455.4507922533396 924.9639627230799 441.8680000659829Q932.1825832998748 428.28520787862624 945.2350278530179 420.97819602946254Q958.287472406161 413.67118418029884 975.2585967009929 413.67118418029884L975.2585967009929 413.67118418029884Q991.78776463398 413.67118418029884 1004.5161078551039 420.86034099963734Q1017.2444510762277 428.0789615764321 1024.1389703210034 440.718913525187Q1031.0334895657788 453.3294017164856 1031.0334895657788 469.23983074289043L1031.0334895657788 469.23983074289043ZM1011.0865257678599 465.20329597137663Q1011.0865257678599 454.1838506827185 1006.2250057875697 446.2286361695161Q1001.334022049823 438.2734216563137 992.9663149322323 434.11903185497465Q984.5691440571853 429.9941058110919 974.40414773476 429.9941058110919L974.40414773476 429.9941058110919Q959.7606602789763 429.9941058110919 949.4778089267259 439.33411692474067Q939.1949575744753 448.6741280383894 937.6923059442038 465.20329597137663L937.6923059442038 465.20329597137663L1011.0865257678599 465.20329597137663ZM1136.0423211400503 399.6464356310976L1075.7889371419064 399.6464356310976L1075.7889371419064 449.0866206427777L1129.6781495294886 449.0866206427777L1129.6781495294886 464.9970496691825L1075.7889371419064 464.9970496691825L1075.7889371419064 515.9104225536778L1136.0423211400503 515.9104225536778L1136.0423211400503 531.8208515800827L1056.4901760080265 531.8208515800827L1056.4901760080265 383.73600660469276L1136.0423211400503 383.73600660469276L1136.0423211400503 399.6464356310976ZM1206.490165218076 533.7359958147425Q1193.1136193329135 533.7359958147425 1182.5066666486437 529.1691134090152Q1171.8997139643739 524.6022310032879 1165.741788656006 516.4407701878913Q1159.5838633476383 508.2793093724948 1158.9651244410557 497.67235668822497L1158.9651244410557 497.67235668822497L1178.9120882389748 497.67235668822497Q1179.7370734477513 506.364165137835 1187.0735490543711 511.8738877821641Q1194.3805609035348 517.3836104264931 1206.2544551584256 517.3836104264931L1206.2544551584256 517.3836104264931Q1217.3033642045402 517.3836104264931 1223.667535815102 512.5220904462028Q1230.031707425664 507.6311067084561 1230.031707425664 500.20623982946717L1230.031707425664 500.20623982946717Q1230.031707425664 492.5751266482842 1223.2255794532575 488.8626932087897Q1216.448915238307 485.15025976929525 1202.2473841443684 481.555681359626L1202.2473841443684 481.555681359626Q1189.283330863594 478.1378854946946 1181.1218700481973 474.6611621148506Q1172.9604092328009 471.1549749775503 1167.1265852564525 464.26045573277486Q1161.292761280104 457.3659364879995 1161.292761280104 446.11078113969086L1161.292761280104 446.11078113969086Q1161.292761280104 437.2127263878867 1166.5962376222392 429.7878595088978Q1171.8997139643739 422.3629926299089 1181.652217682411 418.0023565263757Q1191.4047214004477 413.67118418029884 1203.9268183193776 413.67118418029884L1203.9268183193776 413.67118418029884Q1223.2255794532575 413.67118418029884 1235.1289374656048 423.42368789833586Q1247.002831720496 433.1761916163729 1247.8572806867287 450.14731591120466L1247.8572806867287 450.14731591120466L1228.5290557953922 450.14731591120466Q1227.91031688881 441.0135510997501 1221.222043946229 435.503828455421Q1214.5337710036474 429.9941058110919 1203.3080794127955 429.9941058110919L1203.3080794127955 429.9941058110919Q1192.9073730307196 429.9941058110919 1186.7494477223518 434.44313318699403Q1180.591522413984 438.8921605628961 1180.591522413984 446.11078113969086L1180.591522413984 446.11078113969086Q1180.591522413984 451.8562138436704 1184.3039558534783 455.5686472831648Q1188.0163892929727 459.2810807226593 1193.6439669671272 461.4908625318822Q1199.2715446412813 463.7301080985614 1209.2302946615127 466.47023754199773L1209.2302946615127 466.47023754199773Q1221.7523915804422 469.8880334069292 1229.5897510638192 473.15851048457904Q1237.4565743046528 476.45845131968525 1243.0841519788073 483.0288692324413Q1248.6822658955052 489.59928714519737 1248.9179759551557 500.20623982946717L1248.9179759551557 500.20623982946717Q1248.9179759551557 509.7524972453101 1243.6144996130206 517.3836104264931Q1238.311023270886 525.0441873651325 1228.6469108252177 529.3753597112093Q1218.9827983795494 533.7359958147425 1206.490165218076 533.7359958147425L1206.490165218076 533.7359958147425ZM1317.2149657388713 533.7359958147425Q1303.8384198537087 533.7359958147425 1293.2314671694385 529.1691134090152Q1282.6245144851687 524.6022310032879 1276.4960529342575 516.4407701878913Q1270.3381276258897 508.2793093724948 1269.689924961851 497.67235668822497L1269.689924961851 497.67235668822497L1289.6368887597696 497.67235668822497Q1290.4913377260023 506.364165137835 1297.798349575166 511.8738877821641Q1305.1348251817858 517.3836104264931 1317.008719436677 517.3836104264931L1317.008719436677 517.3836104264931Q1328.028164725335 517.3836104264931 1334.3923363358972 512.5220904462028Q1340.756507946459 507.6311067084561 1340.756507946459 500.20623982946717L1340.756507946459 500.20623982946717Q1340.756507946459 492.5751266482842 1333.979843731509 488.8626932087897Q1327.1737157591024 485.15025976929525 1312.9721846651632 481.555681359626L1312.9721846651632 481.555681359626Q1300.037595141845 478.1378854946946 1291.8761343264487 474.6611621148506Q1283.6852097535957 471.1549749775503 1277.8513857772473 464.26045573277486Q1272.0175618008989 457.3659364879995 1272.0175618008989 446.11078113969086L1272.0175618008989 446.11078113969086Q1272.0175618008989 437.2127263878867 1277.321038143034 429.7878595088978Q1282.6245144851687 422.3629926299089 1292.406481960662 418.0023565263757Q1302.158985678699 413.67118418029884 1314.681082597629 413.67118418029884L1314.681082597629 413.67118418029884Q1333.979843731509 413.67118418029884 1345.8537379864001 423.42368789833586Q1357.7276322412908 433.1761916163729 1358.5820812075235 450.14731591120466L1358.5820812075235 450.14731591120466L1339.2833200736436 450.14731591120466Q1338.6351174096048 441.0135510997501 1331.9468444670238 435.503828455421Q1325.2880352818988 429.9941058110919 1314.0328799335903 429.9941058110919L1314.0328799335903 429.9941058110919Q1303.6321735515144 429.9941058110919 1297.4742482431466 434.44313318699403Q1291.345786692235 438.8921605628961 1291.345786692235 446.11078113969086L1291.345786692235 446.11078113969086Q1291.345786692235 451.8562138436704 1295.0582201317297 455.5686472831648Q1298.770653571224 459.2810807226593 1304.368767487922 461.4908625318822Q1309.9963451620765 463.7301080985614 1319.9845589397642 466.47023754199773L1319.9845589397642 466.47023754199773Q1332.477192101237 469.8880334069292 1340.3440153420706 473.15851048457904Q1348.181374825448 476.45845131968525 1353.8089524996021 483.0288692324413Q1359.4365301737566 489.59928714519737 1359.6427764759505 500.20623982946717L1359.6427764759505 500.20623982946717Q1359.6427764759505 509.7524972453101 1354.3393001338159 517.3836104264931Q1349.0358237916807 525.0441873651325 1339.3717113460125 529.3753597112093Q1329.7370626578008 533.7359958147425 1317.2149657388713 533.7359958147425L1317.2149657388713 533.7359958147425ZM1492.877887693363 469.23983074289043Q1492.877887693363 474.7495533872195 1492.2296850293242 480.9074786955873L1492.2296850293242 480.9074786955873L1399.3009940121374 480.9074786955873Q1400.3616892805644 498.0848492926132 1411.0864969946597 507.74896173828137Q1421.8113047087545 517.3836104264931 1437.0735310711207 517.3836104264931L1437.0735310711207 517.3836104264931Q1449.5956279900506 517.3836104264931 1457.963335107641 511.5497864501447Q1466.3605059826882 505.7159624737963 1469.7488380901632 495.9634587557593L1469.7488380901632 495.9634587557593L1490.5207870968584 495.9634587557593Q1485.8655134187625 512.7283367483969 1471.8702286270172 523.2174344028415Q1457.8749438352725 533.7359958147425 1437.0735310711207 533.7359958147425L1437.0735310711207 533.7359958147425Q1420.5148993806774 533.7359958147425 1407.4919185849903 526.3111289357537Q1394.439474031847 518.8862620567647 1387.0146071528584 505.1856148395828Q1379.5897402738692 491.51443137985717 1379.5897402738692 473.4826118165984L1379.5897402738692 473.4826118165984Q1379.5897402738692 455.4507922533396 1386.808360850664 441.8680000659829Q1393.9975176700027 428.28520787862624 1407.049962223146 420.97819602946254Q1420.1024067762887 413.67118418029884 1437.0735310711207 413.67118418029884L1437.0735310711207 413.67118418029884Q1453.6321627615644 413.67118418029884 1466.3605059826882 420.86034099963734Q1479.088849203812 428.0789615764321 1485.983368448587 440.718913525187Q1492.877887693363 453.3294017164856 1492.877887693363 469.23983074289043L1492.877887693363 469.23983074289043ZM1472.9309238954443 465.20329597137663Q1472.9309238954443 454.1838506827185 1468.0399401576974 446.2286361695161Q1463.1784201774071 438.2734216563137 1454.7812493023603 434.11903185497465Q1446.4135421847695 429.9941058110919 1436.219082104888 429.9941058110919L1436.219082104888 429.9941058110919Q1421.5755946491045 429.9941058110919 1411.2927432968536 439.33411692474067Q1401.0098919446032 448.6741280383894 1399.5367040717879 465.20329597137663L1399.5367040717879 465.20329597137663L1472.9309238954443 465.20329597137663ZM1574.963915966629 413.4354741206484Q1596.177821335169 413.4354741206484 1609.3186571606807 426.2816723715975Q1622.4889567436494 439.12787062254654 1622.4889567436494 463.28815173671677L1622.4889567436494 463.28815173671677L1622.4889567436494 531.8208515800827L1603.3964419119638 531.8208515800827L1603.3964419119638 466.05774493760947Q1603.3964419119638 448.6741280383894 1594.7046334623537 439.4225081971096Q1585.983361255287 430.20035211328604 1570.9273811951152 430.20035211328604L1570.9273811951152 430.20035211328604Q1555.665154832749 430.20035211328604 1546.64924505112 439.74660952912893Q1537.6333352694905 449.2928669449718 1537.6333352694905 467.53093281042476L1537.6333352694905 467.53093281042476L1537.6333352694905 531.8208515800827L1518.3345741356106 531.8208515800827L1518.3345741356106 415.5568646575024L1537.6333352694905 415.5568646575024L1537.6333352694905 432.1154963479459Q1543.3493042160135 423.2174415961417 1553.2196629638756 418.32645785839503Q1563.0900217117382 413.4354741206484 1574.963915966629 413.4354741206484L1574.963915966629 413.4354741206484ZM1646.88494791747 473.4826118165984Q1646.88494791747 455.4507922533396 1654.103568494265 441.9858550958082Q1661.2927253136031 428.5209179382767 1674.1389235645524 421.0960510592878Q1686.9851218155013 413.67118418029884 1703.5142897484889 413.67118418029884L1703.5142897484889 413.67118418029884Q1724.9344414192228 413.67118418029884 1738.8413349385987 424.0424268049183Q1752.7482284579746 434.44313318699403 1757.1972558338766 452.91690911209736L1757.1972558338766 452.91690911209736L1736.3958430697253 452.91690911209736Q1733.4200035666386 442.3099564278275 1724.8460501468535 436.1520311194597Q1716.2426329696127 429.9941058110919 1703.5142897484889 429.9941058110919L1703.5142897484889 429.9941058110919Q1686.9851218155013 429.9941058110919 1676.7906617356198 441.3376524317694Q1666.5962016557382 452.6811990524469 1666.5962016557382 473.4826118165984L1666.5962016557382 473.4826118165984Q1666.5962016557382 494.490270882944 1676.7906617356198 505.9516725334467Q1686.9851218155013 517.3836104264931 1703.5142897484889 517.3836104264931L1703.5142897484889 517.3836104264931Q1716.2426329696127 517.3836104264931 1724.7281951170285 511.46139517777584Q1733.2137572644442 505.5097161716022 1736.3958430697253 494.490270882944L1736.3958430697253 494.490270882944L1757.1972558338766 494.490270882944Q1752.5125183983241 512.3158441440087 1738.5172336065793 523.0111881006474Q1724.5219488148346 533.7359958147425 1703.5142897484889 533.7359958147425L1703.5142897484889 533.7359958147425Q1686.9851218155013 533.7359958147425 1674.1389235645524 526.3111289357537Q1661.2927253136031 518.8862620567647 1654.103568494265 505.30346986940805Q1646.88494791747 491.7206776820513 1646.88494791747 473.4826118165984L1646.88494791747 473.4826118165984ZM1888.9297154210171 469.23983074289043Q1888.9297154210171 474.7495533872195 1888.2815127569788 480.9074786955873L1888.2815127569788 480.9074786955873L1795.3822854972482 480.9074786955873Q1796.4429807656752 498.0848492926132 1807.1383247223143 507.74896173828137Q1817.8631324364092 517.3836104264931 1833.1253587987753 517.3836104264931L1833.1253587987753 517.3836104264931Q1845.6474557177048 517.3836104264931 1854.0446265927521 511.5497864501447Q1862.4123337103424 505.7159624737963 1865.8006658178178 495.9634587557593L1865.8006658178178 495.9634587557593L1886.6020785819692 495.9634587557593Q1881.9173411464167 512.7283367483969 1867.922056354672 523.2174344028415Q1853.9267715629267 533.7359958147425 1833.1253587987753 533.7359958147425L1833.1253587987753 533.7359958147425Q1816.5961908657882 533.7359958147425 1803.543746312645 526.3111289357537Q1790.4913017595018 518.8862620567647 1783.066434880513 505.1856148395828Q1775.6415680015239 491.51443137985717 1775.6415680015239 473.4826118165984L1775.6415680015239 473.4826118165984Q1775.6415680015239 455.4507922533396 1782.8601885783187 441.8680000659829Q1790.0788091551135 428.28520787862624 1803.1312537082567 420.97819602946254Q1816.1542345039434 413.67118418029884 1833.1253587987753 413.67118418029884L1833.1253587987753 413.67118418029884Q1849.6839904892186 413.67118418029884 1862.4123337103424 420.86034099963734Q1875.1406769314667 428.0789615764321 1882.0351961762417 440.718913525187Q1888.9297154210171 453.3294017164856 1888.9297154210171 469.23983074289043L1888.9297154210171 469.23983074289043ZM1868.982751623099 465.20329597137663Q1868.982751623099 454.1838506827185 1864.1212316428082 446.2286361695161Q1859.2302479050618 438.2734216563137 1850.862540787471 434.11903185497465Q1842.4653699124242 429.9941058110919 1832.3003735899988 429.9941058110919L1832.3003735899988 429.9941058110919Q1817.6568861342153 429.9941058110919 1807.3740347819648 439.33411692474067Q1797.0617196722578 448.6741280383894 1795.5885317994425 465.20329597137663L1795.5885317994425 465.20329597137663L1868.982751623099 465.20329597137663Z " fill="#000000" transform="matrix(0.4632252738242662,0,0,0.46322527382426615,0,87.50188748721533)"/></g></svg>